# xmcd
#
# Track frame offsets:
#	150
#	12350
#	40302
#	70257
#	81060
#	96365
#	108305
#	128035
#	143535
#	157960
#	171455
#	185980
#	203595
#	218507
#
# Disc length: 3073 seconds
# Revision: 3
# Processed by: cddbd v1.5.2PL0 Copyright (c) Steve Scherf et al.
# Submitted via: dBpowerAMP V12.0
#
DISCID=be0bff0e
DTITLE=Little Milton - Tending His Roots
DYEAR=1996
DGENRE=Blues
TTITLE0=Life Is Like That
TTITLE1=Sweet Sixteen
TTITLE2=I Can't Quit You Baby
TTITLE3=Don't Talk Back
TTITLE4=Reconsider Baby
TTITLE5=Losing Hand
TTITLE6=Stormy Monday
TTITLE7=Blind Man
TTITLE8=Blues In The Night
TTITLE9=Did You Ever Love A Woman?
TTITLE10=Blues Get Off My Shoulder
TTITLE11=Things I Used To Do
TTITLE12=Don't Decelve Me
TTITLE13=Grits Ain't Groceries (All Around The World)
EXTD=
EXTT0=
EXTT1=
EXTT2=
EXTT3=
EXTT4=
EXTT5=
EXTT6=
EXTT7=
EXTT8=
EXTT9=
EXTT10=
EXTT11=
EXTT12=
EXTT13=
PLAYORDER=
